#!OML:ASF F:\VICON\USERDATA\INSTALL\rory3\rory3.ASF
:FULLY-SPECIFIED
:DEGREES
74
root 0.8792787098016845 17.80920291370858 45.01826170957205 -4.82934241093411 0.30365063084305577 -4.0779203483179645
lfemur -21.25310702994179 -2.136349068580425 -18.237427499583863
ltibia 31.474636502323488
lfoot -12.11508931056619 2.9623245109485463
ltoes -10.594311597633611
rfemur -0.32072323802347746 2.477582265093451 27.415183314410296
rtibia 43.73513560920552
rfoot 0.9352648992328731 -11.592462455350166
rtoes 9.271232666771784
lowerback 9.649105442837703 0.9718709145106157 3.5864335929762787
upperback 0.03761907829888131 2.078534978570478 1.112103795837424
thorax -4.834412978231045 1.0090784064407075 -1.528808654533416
lowerneck -15.950501529206992 -3.3916486835914728 -1.6353701230974895
upperneck 21.649770711057947 -4.541069393446484 0.8381352001375799
head 9.600160652130112 -2.1575619169873876 -0.13771980091994995
lclavicle 4.264699339079322e-16 -8.055742104880353e-16
lhumerus -33.969735744658564 5.618876331574521 81.03497179455006
lradius 24.647156482914678
lwrist 8.688936021672824
lhand -28.629609527145824 19.396479381871966
lfingers nan
lthumb -2.059499280504878 49.37684651933344
rclavicle 4.348718618484178e-16 -7.966578594346068e-16
rhumerus -25.29169695812304 -14.371609741976934 -76.98073544537543
rradius 34.07288272189578
rwrist 2.374796406815064
rhand -18.053908559295014 20.926554401962473
rfingers nan
rthumb 8.675699059271846 -7.782886937935234
75
root 0.895011071528187 17.80409013398284 46.11364292112265 -4.706691038689082 0.5814279980599055 -2.926228956885342
lfemur -18.86249671247353 -2.626336066445721 -19.767061310398525
ltibia 27.921916902819365
lfoot -11.704686724387429 2.583735864126546
ltoes -10.76946160202088
rfemur -1.9437275220136296 1.8754478715130765 25.840816355329775
rtibia 47.97540433800086
rfoot 0.20618562603953272 -11.923081822723107
rtoes 9.738063521021935
lowerback 9.506928555634124 0.8244414869284793 2.762145986820352
upperback 0.060219740161571014 1.6966490762693738 0.9019034644263618
thorax -4.835160963892189 0.8531148241224904 -1.1973537638187075
lowerneck -15.986698693218207 -3.3961834306199674 -1.676311706678827
upperneck 21.561882890011915 -4.552931442214549 1.0434946247523833
head 9.588431053507517 -2.1514425574094096 -0.04803281210024407
lclavicle 4.2620083980209546e-16 -8.046171934264943e-16
lhumerus -33.39933523506769 5.082039742597169 80.9887509175321
lradius 25.0345968267759
lwrist 8.550162784844293
lhand -28.65234264814838 19.440213740272803
lfingers nan
lthumb -2.085399364254488 49.40509234741556
rclavicle 4.349098644235455e-16 -7.957670270225493e-16
rhumerus -25.54987795692573 -14.052704084154245 -77.58898749600249
rradius 33.94251692968301
rwrist 2.3780309183727377
rhand -18.16618106892353 20.647933144892917
rfingers nan
rthumb 8.666203503377089 -7.852633807700826
76
root 0.9006164755859427 17.79422493672964 46.112243343985085 -4.982457425805626 0.315474331514936 -1.8669173329353745
lfemur -15.794440770984316 -2.8809939153739723 -21.17141942103992
ltibia 24.928033333618018
lfoot -11.031315604264423 0.9337769515707395
ltoes -10.856635377242105
rfemur -4.833715117179141 1.5304739991399061 24.31552736426699
rtibia 52.89376096272253
rfoot -0.972462010769072 -11.105680813548588
rtoes 9.754936516729964
lowerback 9.503998352867104 0.7735160790654515 1.8345651423953888
upperback 0.0987078949282029 1.4167857803564816 0.7585280027146869
thorax -4.871042643033668 0.7315895493061668 -0.875072883876726
lowerneck -16.05565759327556 -3.3991846997199118 -1.6989777949622975
upperneck 21.449567757305275 -4.5594172994441 1.2393650013461173
head 9.571990615519773 -2.142188931791304 0.03692451470414163
lclavicle 4.236192243560578e-16 -8.051453304520798e-16
lhumerus -32.68380750761541 4.442932167209979 80.9164417818777
lradius 25.39799082532033
lwrist 8.416903281914287
lhand -28.62471156030579 19.572234107397176
lfingers nan
lthumb -2.0352158234404256 49.59838121076924
rclavicle 4.349036755855519e-16 -7.947554335236221e-16
rhumerus -25.846896983894993 -13.943533060385104 -78.26886556424414
rradius 33.64272243782797
rwrist 2.2654564570250124
rhand -18.070516225077817 20.845979107765707
rfingers nan
rthumb 8.665085837888576 -7.896707320721239
77
root 0.8957486348290591 17.78537576710115 46.28619822288249 -4.793026382692123 0.1745692408094044 -2.0163303409699336
lfemur -12.715481050029622 -3.0285509089978184 -21.345473205636182
ltibia 22.65476382962469
lfoot -11.117424037734967 0.12401145824829785
ltoes -10.893267818635737
rfemur -8.573541805763352 1.3325254752046418 24.046460411864043
rtibia 57.972744617360945
rfoot -2.2339113883798456 -9.359370809899698
rtoes 9.49818737783869
lowerback 9.447361859801171 0.605071504810796 1.7769621757401384
upperback 0.0863556094030834 1.2072044403750073 0.7892136717770138
thorax -4.991184496003229 0.639887615072519 -0.6425059424553227
lowerneck -16.14403565965418 -3.3937260460967775 -1.6897659619580863
upperneck 21.330338458946557 -4.5529795086478195 1.399110572252094
head 9.553378919758668 -2.1288166702034683 0.10713093455593704
lclavicle 4.1882478173125603e-16 -8.072510469637199e-16
lhumerus -31.875718467444436 3.7523083036286273 80.80100551396973
lradius 25.751434246496807
lwrist 8.263283724143683
lhand -28.583278919256923 19.64537532974388
lfingers nan
lthumb -1.9756086170067453 49.669856358034686
rclavicle 4.350462975611333e-16 -7.93618957031826e-16
rhumerus -26.18308223114465 -14.134393410189038 -78.97420708843602
rradius 33.200792571651704
rwrist 2.0743347108761463
rhand -18.181479042108464 20.581253212232436
rfingers nan
rthumb 8.641104149365782 -7.974033134312305
